<svg width="760.596" height="108.545" viewBox="0 0 760.596 108.545" xmlns="http://www.w3.org/2000/svg"><g id="svgGroup" stroke-linecap="round" fill-rule="evenodd" font-size="9pt" stroke="#ffc500" stroke-width="0.25mm" fill="#ffc50000" style="stroke:#ffc500;stroke-width:0.25mm;fill:#ffc50000"><path d="M 33.887 81.201 L 0 81.201 L 0 77.051 L 7.422 75.928 L 7.422 12.842 L 0 11.719 L 0 7.568 L 32.568 7.568 A 45.477 45.477 0 0 1 39.246 8.026 Q 46.014 9.033 50.244 12.256 A 14.232 14.232 0 0 1 55.964 22.713 A 20.331 20.331 0 0 1 56.055 24.658 Q 56.055 28.467 54.712 31.25 A 18.073 18.073 0 0 1 52.498 34.778 A 16.033 16.033 0 0 1 51.367 36.035 A 23.77 23.77 0 0 1 45.635 40.11 A 29.725 29.725 0 0 1 42.48 41.504 A 46.643 46.643 0 0 1 47.178 42.649 Q 52.263 44.193 55.078 46.631 Q 60.144 51.064 60.517 59.52 A 31.078 31.078 0 0 1 60.547 60.889 A 17.681 17.681 0 0 1 54.986 74.105 A 22.139 22.139 0 0 1 54.004 75 Q 47.808 80.353 37.319 81.085 A 49.303 49.303 0 0 1 33.887 81.201 Z M 654.346 34.131 L 654.346 9.082 L 646.875 7.568 L 646.875 3.613 L 662.256 0 L 662.256 73.389 A 2.795 2.795 0 0 0 662.391 74.298 Q 662.817 75.536 664.576 75.584 A 5.292 5.292 0 0 0 664.722 75.586 Q 667.162 75.586 670.822 74.103 A 34.236 34.236 0 0 0 670.898 74.072 L 671.924 78.662 A 60.844 60.844 0 0 1 668.655 80.263 Q 664.076 82.324 661.475 82.324 Q 658.655 82.324 656.926 81.296 A 5.116 5.116 0 0 1 654.883 79.053 Q 654.346 77.881 654.346 76.27 A 24.657 24.657 0 0 1 649.639 79.559 A 21.164 21.164 0 0 1 646.533 80.908 A 26.506 26.506 0 0 1 637.915 82.324 A 22.424 22.424 0 0 1 629.297 80.615 A 18.724 18.724 0 0 1 623.658 77.062 A 17.681 17.681 0 0 1 622.363 75.732 A 20.326 20.326 0 0 1 618.298 68.25 Q 617.367 65.237 617.076 61.618 A 42.606 42.606 0 0 1 616.943 58.203 A 30.388 30.388 0 0 1 618.257 49.091 A 25.245 25.245 0 0 1 623.34 39.99 A 23.202 23.202 0 0 1 640.288 31.794 A 31.99 31.99 0 0 1 642.187 31.738 A 32.601 32.601 0 0 1 653.494 33.806 A 37.292 37.292 0 0 1 654.346 34.131 Z M 445.947 79.932 L 445.947 103.369 L 452.148 104.492 L 452.148 108.545 L 431.641 108.545 L 431.641 104.492 L 437.988 103.369 L 437.988 40.137 L 431.641 38.965 L 431.641 35.01 L 445.947 31.738 L 445.947 38.184 A 37.191 37.191 0 0 1 452.262 34.288 Q 456.425 32.296 460.541 31.86 A 21.844 21.844 0 0 1 462.842 31.738 A 19.689 19.689 0 0 1 470.713 33.272 A 18.744 18.744 0 0 1 477.49 38.33 Q 483.301 45.02 483.301 55.859 A 29.951 29.951 0 0 1 481.837 65.39 A 25.703 25.703 0 0 1 476.855 74.121 Q 469.824 82.324 457.861 82.324 Q 451.563 82.324 445.947 79.932 Z M 518.75 66.943 L 521.289 66.943 A 11.763 11.763 0 0 0 522.067 71.401 Q 524.408 77.148 533.789 77.148 A 17.346 17.346 0 0 0 536.884 76.889 Q 538.615 76.575 540 75.881 A 9.171 9.171 0 0 0 541.357 75.049 A 7.073 7.073 0 0 0 542.883 73.554 A 5.413 5.413 0 0 0 543.945 70.264 Q 543.945 67.236 542.432 65.576 Q 539.453 62.305 533.813 60.352 A 75.331 75.331 0 0 1 530.715 59.207 Q 527.34 57.869 525.366 56.616 A 23.773 23.773 0 0 1 523.282 55.14 Q 522.249 54.315 521.452 53.457 A 13.15 13.15 0 0 1 520.947 52.881 A 12.593 12.593 0 0 1 519.02 49.822 A 10.16 10.16 0 0 1 518.164 45.728 A 16.73 16.73 0 0 1 518.358 43.1 Q 518.583 41.688 519.068 40.527 A 8.755 8.755 0 0 1 519.604 39.453 A 13.73 13.73 0 0 1 523.389 35.303 A 19.118 19.118 0 0 1 534.1 31.752 A 23.499 23.499 0 0 1 534.912 31.738 A 30.116 30.116 0 0 1 542.058 32.552 A 23.977 23.977 0 0 1 548.633 35.205 L 547.51 44.629 L 544.873 44.629 A 8.063 8.063 0 0 0 544.153 41.097 Q 542.515 37.696 537.152 37.093 A 22.287 22.287 0 0 0 534.668 36.963 Q 531.884 36.963 529.944 37.643 A 7.349 7.349 0 0 0 527.93 38.696 A 6.406 6.406 0 0 0 526.577 40.053 A 4.946 4.946 0 0 0 525.635 43.018 A 5.978 5.978 0 0 0 527.192 46.881 Q 529.968 50.205 537.687 53.113 A 66.135 66.135 0 0 0 538.379 53.369 A 41.051 41.051 0 0 1 543.392 55.577 Q 548.964 58.53 550.94 62.412 A 9.903 9.903 0 0 1 551.807 64.844 Q 552.134 66.52 552.187 68.727 A 36.422 36.422 0 0 1 552.197 69.604 Q 552.197 72.363 550.415 74.951 A 14.297 14.297 0 0 1 545.947 79.15 A 21.865 21.865 0 0 1 536.8 82.172 A 27.354 27.354 0 0 1 533.887 82.324 A 30.372 30.372 0 0 1 521.387 79.736 A 23.614 23.614 0 0 1 518.761 78.406 A 18.541 18.541 0 0 1 516.895 77.148 L 518.75 66.943 Z M 727.148 66.943 L 729.688 66.943 A 11.763 11.763 0 0 0 730.466 71.401 Q 732.806 77.148 742.188 77.148 A 17.346 17.346 0 0 0 745.282 76.889 Q 747.013 76.575 748.399 75.881 A 9.171 9.171 0 0 0 749.756 75.049 A 7.073 7.073 0 0 0 751.282 73.554 A 5.413 5.413 0 0 0 752.344 70.264 Q 752.344 67.236 750.83 65.576 Q 747.852 62.305 742.212 60.352 A 75.331 75.331 0 0 1 739.113 59.207 Q 735.739 57.869 733.765 56.616 A 23.773 23.773 0 0 1 731.681 55.14 Q 730.647 54.315 729.85 53.457 A 13.15 13.15 0 0 1 729.346 52.881 A 12.593 12.593 0 0 1 727.419 49.822 A 10.16 10.16 0 0 1 726.563 45.728 A 16.73 16.73 0 0 1 726.757 43.1 Q 726.982 41.688 727.467 40.527 A 8.755 8.755 0 0 1 728.003 39.453 A 13.73 13.73 0 0 1 731.787 35.303 A 19.118 19.118 0 0 1 742.499 31.752 A 23.499 23.499 0 0 1 743.311 31.738 A 30.116 30.116 0 0 1 750.457 32.552 A 23.977 23.977 0 0 1 757.031 35.205 L 755.908 44.629 L 753.271 44.629 A 8.063 8.063 0 0 0 752.551 41.097 Q 750.914 37.696 745.55 37.093 A 22.287 22.287 0 0 0 743.066 36.963 Q 740.283 36.963 738.342 37.643 A 7.349 7.349 0 0 0 736.328 38.696 A 6.406 6.406 0 0 0 734.975 40.053 A 4.946 4.946 0 0 0 734.033 43.018 A 5.978 5.978 0 0 0 735.591 46.881 Q 738.366 50.205 746.086 53.113 A 66.135 66.135 0 0 0 746.777 53.369 A 41.051 41.051 0 0 1 751.791 55.577 Q 757.362 58.53 759.339 62.412 A 9.903 9.903 0 0 1 760.205 64.844 Q 760.532 66.52 760.585 68.727 A 36.422 36.422 0 0 1 760.596 69.604 Q 760.596 72.363 758.813 74.951 A 14.297 14.297 0 0 1 754.346 79.15 A 21.865 21.865 0 0 1 745.199 82.172 A 27.354 27.354 0 0 1 742.285 82.324 A 30.372 30.372 0 0 1 729.785 79.736 A 23.614 23.614 0 0 1 727.159 78.406 A 18.541 18.541 0 0 1 725.293 77.148 L 727.148 66.943 Z M 111.523 74.072 L 112.402 78.662 Q 105.461 82.228 102.269 82.322 A 5.778 5.778 0 0 1 102.1 82.324 A 12.236 12.236 0 0 1 99.431 82.06 Q 95.667 81.215 95.079 77.672 A 8.578 8.578 0 0 1 94.971 76.27 L 94.971 74.756 Q 94.373 75.652 91.968 77.256 A 46.395 46.395 0 0 1 91.235 77.734 A 82.565 82.565 0 0 1 89.793 78.638 Q 88.244 79.585 87.131 80.151 A 17.595 17.595 0 0 1 86.475 80.469 A 36.388 36.388 0 0 1 84.57 81.281 Q 82.692 82.014 81.356 82.232 A 6.46 6.46 0 0 1 80.322 82.324 A 42.83 42.83 0 0 1 78.965 82.304 Q 78.359 82.285 77.832 82.247 A 18.569 18.569 0 0 1 76.855 82.153 A 13.984 13.984 0 0 1 74.929 81.768 A 16.654 16.654 0 0 1 74.023 81.494 A 13.392 13.392 0 0 1 71.586 80.392 A 15.183 15.183 0 0 1 71.143 80.127 A 9.715 9.715 0 0 1 68.962 78.261 A 11.253 11.253 0 0 1 68.604 77.832 Q 66.178 74.789 66.115 69.94 A 20.017 20.017 0 0 1 66.113 69.678 A 15.125 15.125 0 0 1 66.525 66.02 A 9.06 9.06 0 0 1 71.045 60.01 Q 74.17 58.203 77.661 57.764 Q 81.152 57.324 84.033 57.08 A 153.833 153.833 0 0 1 94.971 56.494 L 94.971 46.24 Q 94.971 42.011 93.906 40.589 A 2.482 2.482 0 0 0 93.896 40.576 Q 92.09 38.086 88.281 38.086 A 27.599 27.599 0 0 0 76.478 40.814 A 36.518 36.518 0 0 0 71.582 43.604 L 68.75 39.355 A 60.727 60.727 0 0 1 75.657 35.339 Q 82.999 31.738 89.209 31.738 A 22.262 22.262 0 0 1 93.255 32.08 Q 97.987 32.956 100.342 36.084 A 11.299 11.299 0 0 1 102.077 39.572 Q 102.881 42.165 102.881 45.654 L 102.881 71.338 A 14.831 14.831 0 0 0 102.929 72.583 Q 103.107 74.692 103.95 75.284 A 1.244 1.244 0 0 0 104.248 75.439 A 2.972 2.972 0 0 0 104.637 75.526 Q 105.017 75.586 105.518 75.586 A 7.592 7.592 0 0 0 106.703 75.479 Q 107.957 75.278 109.733 74.701 A 44.335 44.335 0 0 0 111.523 74.072 Z M 156.25 70.02 L 159.033 73.193 Q 153.135 78.498 147.518 80.787 A 24.721 24.721 0 0 1 143.994 81.934 Q 142.383 82.324 140.82 82.324 Q 130.127 82.324 123.535 75.537 A 22.278 22.278 0 0 1 117.545 63.353 A 31.392 31.392 0 0 1 117.139 58.203 A 29.908 29.908 0 0 1 118.633 48.582 A 25.781 25.781 0 0 1 123.535 39.99 A 23.416 23.416 0 0 1 140.017 31.844 A 32.696 32.696 0 0 1 142.676 31.738 A 41.395 41.395 0 0 1 149.998 32.357 A 31.389 31.389 0 0 1 156.836 34.375 L 155.664 44.189 L 152.588 44.189 A 6.079 6.079 0 0 0 151.921 41.284 Q 150.682 38.963 147.14 38.05 A 14.497 14.497 0 0 0 146.68 37.939 A 12.982 12.982 0 0 0 145.377 37.708 Q 144.01 37.529 142.132 37.504 A 47.029 47.029 0 0 0 141.504 37.5 Q 138.184 37.5 134.985 39.038 A 15.668 15.668 0 0 0 131.282 41.488 A 14.032 14.032 0 0 0 129.736 43.115 A 18.194 18.194 0 0 0 125.851 52.557 A 23.879 23.879 0 0 0 125.684 55.42 Q 125.684 62.924 128.783 67.915 A 17.136 17.136 0 0 0 130.078 69.727 A 15.677 15.677 0 0 0 135.492 74.048 A 15.633 15.633 0 0 0 142.261 75.488 A 20.321 20.321 0 0 0 153.133 72.283 A 27.272 27.272 0 0 0 156.25 70.02 Z M 422.607 70.02 L 425.391 73.193 Q 419.492 78.498 413.875 80.787 A 24.721 24.721 0 0 1 410.352 81.934 Q 408.74 82.324 407.178 82.324 Q 396.436 82.324 389.697 75.537 A 22.335 22.335 0 0 1 383.243 62.071 A 30.864 30.864 0 0 1 383.008 58.203 A 29.957 29.957 0 0 1 384.632 48.186 A 26.474 26.474 0 0 1 389.307 39.99 A 22.195 22.195 0 0 1 405.45 31.799 A 28.413 28.413 0 0 1 407.324 31.738 A 17.165 17.165 0 0 1 419.932 36.916 A 20.728 20.728 0 0 1 420.264 37.256 A 19.495 19.495 0 0 1 425.61 48.375 A 26.965 26.965 0 0 1 425.879 52.246 L 423.584 54.297 L 391.748 56.592 A 22.847 22.847 0 0 0 392.674 62.991 A 17.499 17.499 0 0 0 397.51 70.801 Q 402.588 75.488 409.326 75.488 A 17.861 17.861 0 0 0 417.259 73.56 Q 419.949 72.241 422.607 70.02 Z M 714.355 70.02 L 717.139 73.193 Q 711.24 78.498 705.623 80.787 A 24.721 24.721 0 0 1 702.1 81.934 Q 700.488 82.324 698.926 82.324 Q 688.184 82.324 681.445 75.537 A 22.335 22.335 0 0 1 674.991 62.071 A 30.864 30.864 0 0 1 674.756 58.203 A 29.957 29.957 0 0 1 676.38 48.186 A 26.474 26.474 0 0 1 681.055 39.99 A 22.195 22.195 0 0 1 697.198 31.799 A 28.413 28.413 0 0 1 699.072 31.738 A 17.165 17.165 0 0 1 711.68 36.916 A 20.728 20.728 0 0 1 712.012 37.256 A 19.495 19.495 0 0 1 717.358 48.375 A 26.965 26.965 0 0 1 717.627 52.246 L 715.332 54.297 L 683.496 56.592 A 22.847 22.847 0 0 0 684.422 62.991 A 17.499 17.499 0 0 0 689.258 70.801 Q 694.336 75.488 701.074 75.488 A 17.861 17.861 0 0 0 709.007 73.56 Q 711.697 72.241 714.355 70.02 Z M 179.932 0 L 179.932 76.025 L 186.133 77.148 L 186.133 81.201 L 165.625 81.201 L 165.625 77.148 L 171.973 76.025 L 171.973 8.789 L 165.625 7.568 L 165.625 3.613 L 179.932 0 Z M 270.703 38.623 L 270.703 66.26 Q 270.703 75.064 277.133 75.931 A 11.088 11.088 0 0 0 278.613 76.025 A 10.67 10.67 0 0 0 283.643 74.723 Q 285.175 73.916 286.67 72.607 L 289.307 75.83 A 46.101 46.101 0 0 1 286.283 78.129 Q 284.755 79.189 283.323 79.962 A 22.683 22.683 0 0 1 281.641 80.786 A 22.493 22.493 0 0 1 279.221 81.693 Q 277.997 82.068 276.894 82.22 A 10.645 10.645 0 0 1 275.439 82.324 Q 272.754 82.324 270.239 81.152 A 10.949 10.949 0 0 1 266.064 77.783 Q 262.793 73.535 262.793 65.723 L 262.793 38.623 L 256.592 38.623 L 256.592 34.375 L 262.793 32.91 L 262.793 26.367 L 268.555 20.605 L 270.703 20.605 L 270.703 32.91 L 286.816 32.91 L 286.816 38.623 L 270.703 38.623 Z M 180.322 55.225 L 202.148 37.988 L 197.803 36.963 L 197.803 32.91 L 217.383 32.91 L 217.383 36.963 L 209.766 38.086 L 189.111 53.955 L 209.619 74.756 L 212.793 76.367 L 218.066 77.148 L 218.066 81.201 L 204.346 81.201 L 180.322 55.225 Z M 293.738 49.566 A 28.778 28.778 0 0 0 292.676 57.471 A 32.581 32.581 0 0 0 293.354 64.293 A 22.347 22.347 0 0 0 298.975 75.244 A 21.686 21.686 0 0 0 309.281 81.349 A 29.985 29.985 0 0 0 317.139 82.324 A 27.75 27.75 0 0 0 317.803 82.316 A 22.324 22.324 0 0 0 334.033 75.146 A 24.665 24.665 0 0 0 339.948 64.609 A 32.63 32.63 0 0 0 341.064 55.859 Q 341.064 45.215 334.863 38.623 A 21.327 21.327 0 0 0 324.243 32.589 A 31.535 31.535 0 0 0 316.699 31.738 A 27.891 27.891 0 0 0 316.077 31.745 A 22.419 22.419 0 0 0 299.854 38.818 A 22.544 22.544 0 0 0 297.691 41.368 A 25.739 25.739 0 0 0 294.604 47.021 A 26.176 26.176 0 0 0 293.738 49.566 Z M 560.584 49.566 A 28.778 28.778 0 0 0 559.521 57.471 A 32.581 32.581 0 0 0 560.2 64.293 A 22.347 22.347 0 0 0 565.82 75.244 A 21.686 21.686 0 0 0 576.127 81.349 A 29.985 29.985 0 0 0 583.984 82.324 A 27.75 27.75 0 0 0 584.649 82.316 A 22.324 22.324 0 0 0 600.879 75.146 A 24.665 24.665 0 0 0 606.794 64.609 A 32.63 32.63 0 0 0 607.91 55.859 Q 607.91 45.215 601.709 38.623 A 21.327 21.327 0 0 0 591.088 32.589 A 31.535 31.535 0 0 0 583.545 31.738 A 27.891 27.891 0 0 0 582.922 31.745 A 22.419 22.419 0 0 0 566.699 38.818 A 22.544 22.544 0 0 0 564.537 41.368 A 25.739 25.739 0 0 0 561.45 47.021 A 26.176 26.176 0 0 0 560.584 49.566 Z M 504.59 31.738 L 504.59 76.025 L 510.84 77.148 L 510.84 81.201 L 490.332 81.201 L 490.332 77.148 L 496.68 76.025 L 496.68 40.479 L 490.332 39.355 L 490.332 35.303 L 504.59 31.738 Z M 32.813 45.117 L 16.602 45.117 L 16.602 75.342 L 30.42 75.342 A 45.618 45.618 0 0 0 36.9 74.919 Q 47.379 73.409 50.049 66.504 A 16.181 16.181 0 0 0 51.072 61.842 A 19.253 19.253 0 0 0 51.123 60.425 Q 51.123 57.129 49.976 54.37 A 13.17 13.17 0 0 0 46.533 49.561 Q 41.962 45.482 34.223 45.147 A 32.618 32.618 0 0 0 32.813 45.117 Z M 305.176 42.896 A 17.11 17.11 0 0 0 302.705 47.346 A 20.342 20.342 0 0 0 302.222 48.779 A 24.337 24.337 0 0 0 301.3 53.913 A 29.112 29.112 0 0 0 301.221 56.079 A 32.497 32.497 0 0 0 302.124 63.745 A 22.063 22.063 0 0 0 303.644 68.081 A 18.903 18.903 0 0 0 304.932 70.361 A 13.382 13.382 0 0 0 314.602 76.451 A 17.981 17.981 0 0 0 317.041 76.611 A 18.047 18.047 0 0 0 321.947 75.981 A 13.074 13.074 0 0 0 328.564 71.729 A 16.284 16.284 0 0 0 331.841 65.281 Q 332.617 62.358 332.617 58.789 A 39.231 39.231 0 0 0 332.069 51.966 Q 330.49 43.052 324.365 39.355 A 12.769 12.769 0 0 0 319.725 37.7 A 16.776 16.776 0 0 0 317.09 37.5 A 20.343 20.343 0 0 0 313.953 37.729 Q 312.244 37.996 310.82 38.575 A 11.458 11.458 0 0 0 310.01 38.94 A 13.924 13.924 0 0 0 305.176 42.896 Z M 572.021 42.896 A 17.11 17.11 0 0 0 569.551 47.346 A 20.342 20.342 0 0 0 569.067 48.779 A 24.337 24.337 0 0 0 568.146 53.913 A 29.112 29.112 0 0 0 568.066 56.079 A 32.497 32.497 0 0 0 568.97 63.745 A 22.063 22.063 0 0 0 570.49 68.081 A 18.903 18.903 0 0 0 571.777 70.361 A 13.382 13.382 0 0 0 581.448 76.451 A 17.981 17.981 0 0 0 583.887 76.611 A 18.047 18.047 0 0 0 588.792 75.981 A 13.074 13.074 0 0 0 595.41 71.729 A 16.284 16.284 0 0 0 598.687 65.281 Q 599.463 62.358 599.463 58.789 A 39.231 39.231 0 0 0 598.914 51.966 Q 597.335 43.052 591.211 39.355 A 12.769 12.769 0 0 0 586.57 37.7 A 16.776 16.776 0 0 0 583.936 37.5 A 20.343 20.343 0 0 0 580.799 37.729 Q 579.089 37.996 577.665 38.575 A 11.458 11.458 0 0 0 576.855 38.94 A 13.924 13.924 0 0 0 572.021 42.896 Z M 445.947 43.115 L 445.947 70.996 A 13.299 13.299 0 0 0 453.237 75.854 Q 455.505 76.493 458.246 76.593 A 28.35 28.35 0 0 0 459.277 76.611 A 14.356 14.356 0 0 0 465.649 75.22 Q 468.417 73.872 470.565 71.218 A 18.06 18.06 0 0 0 470.703 71.045 A 18.669 18.669 0 0 0 474.724 60.682 A 24.004 24.004 0 0 0 474.805 58.691 Q 474.805 49.756 471.094 44.189 A 14.635 14.635 0 0 0 467.765 40.53 A 12.105 12.105 0 0 0 460.205 38.086 A 21.186 21.186 0 0 0 452.752 39.505 Q 449.403 40.758 445.947 43.115 Z M 654.346 70.85 L 654.346 43.115 A 13.272 13.272 0 0 0 647.151 38.29 Q 644.409 37.5 640.967 37.5 A 14.125 14.125 0 0 0 634.379 39.019 Q 631.729 40.39 629.659 42.999 A 18.305 18.305 0 0 0 629.492 43.213 Q 625.503 48.484 625.394 56.71 A 35.069 35.069 0 0 0 625.391 57.178 A 25.293 25.293 0 0 0 625.987 62.818 A 17.746 17.746 0 0 0 629.297 69.922 A 13.833 13.833 0 0 0 637.636 75.036 A 21.608 21.608 0 0 0 642.187 75.488 A 13.688 13.688 0 0 0 645.849 74.94 Q 649.603 73.894 654.346 70.85 Z M 31.445 13.477 L 16.602 13.477 L 16.602 39.795 L 30.518 39.795 A 23.776 23.776 0 0 0 35.846 39.239 Q 39.32 38.439 41.773 36.49 A 13.193 13.193 0 0 0 44.971 32.764 A 10.442 10.442 0 0 0 46.118 29.866 Q 46.533 28.14 46.533 26.025 A 18.682 18.682 0 0 0 46.217 22.463 Q 45.829 20.468 44.964 18.94 A 8.796 8.796 0 0 0 42.92 16.479 Q 39.307 13.477 31.445 13.477 Z M 392.09 52.002 L 417.188 49.707 A 17.703 17.703 0 0 0 416.509 45.394 A 10.779 10.779 0 0 0 410.938 38.574 A 8.927 8.927 0 0 0 408.876 37.84 Q 407.407 37.5 405.566 37.5 A 11.33 11.33 0 0 0 401.864 38.091 A 10.244 10.244 0 0 0 399.731 39.111 Q 397.168 40.723 395.508 43.018 Q 392.334 47.363 392.09 52.002 Z M 683.838 52.002 L 708.936 49.707 A 17.703 17.703 0 0 0 708.258 45.394 A 10.779 10.779 0 0 0 702.686 38.574 A 8.927 8.927 0 0 0 700.624 37.84 Q 699.155 37.5 697.314 37.5 A 11.33 11.33 0 0 0 693.612 38.091 A 10.244 10.244 0 0 0 691.479 39.111 Q 688.916 40.723 687.256 43.018 Q 684.082 47.363 683.838 52.002 Z M 94.971 70.264 L 94.971 60.596 A 144.085 144.085 0 0 0 89.38 60.912 Q 81.498 61.527 78.146 62.918 A 8.262 8.262 0 0 0 77.197 63.379 A 5.605 5.605 0 0 0 74.346 67.409 A 8.267 8.267 0 0 0 74.219 68.896 A 10.821 10.821 0 0 0 74.476 71.355 Q 74.827 72.856 75.657 73.879 A 5.555 5.555 0 0 0 78.467 75.684 Q 79.427 75.964 80.731 76.014 A 15.28 15.28 0 0 0 81.323 76.025 A 10.197 10.197 0 0 0 82.785 75.913 Q 83.92 75.748 85.254 75.342 Q 87.5 74.658 89.404 73.682 A 42.059 42.059 0 0 0 91.5 72.593 Q 92.564 71.999 93.432 71.417 A 17.041 17.041 0 0 0 94.971 70.264 Z M 495.117 14.893 A 7.036 7.036 0 0 0 496.411 16.821 Q 497.217 17.676 498.193 18.213 A 3.648 3.648 0 0 0 498.695 18.44 Q 499.14 18.603 499.675 18.681 A 7.237 7.237 0 0 0 500.708 18.75 A 2.585 2.585 0 0 0 501.037 18.729 Q 502.026 18.602 503.142 17.72 A 10.076 10.076 0 0 0 504.102 16.846 A 8.314 8.314 0 0 0 505.396 14.893 Q 505.7 14.255 505.824 13.453 A 7.698 7.698 0 0 0 505.908 12.28 A 2.801 2.801 0 0 0 505.878 11.875 Q 505.737 10.908 504.934 9.771 A 11.156 11.156 0 0 0 504.102 8.74 Q 503.271 7.861 502.222 7.324 Q 501.172 6.787 499.683 6.787 Q 498.566 6.787 497.27 7.886 A 10.207 10.207 0 0 0 496.387 8.74 A 7.914 7.914 0 0 0 495.117 10.669 A 5.749 5.749 0 0 0 494.939 11.095 A 4.786 4.786 0 0 0 494.629 12.769 A 4.657 4.657 0 0 0 494.716 13.659 A 5.53 5.53 0 0 0 495.117 14.893 Z" vector-effect="non-scaling-stroke"/></g></svg>