<svg width="401.367" height="100" viewBox="0 0 401.367 75.942" xmlns="http://www.w3.org/2000/svg"><g id="svgGroup" stroke-linecap="round" fill-rule="evenodd" font-size="9pt" stroke="#ffc500" stroke-width="0.25mm" fill="#ffc50000" style="stroke:#ffc500;stroke-width:0.25mm;fill:#ffc50000"><path d="M 193.994 6.397 L 215.381 63.037 L 227.93 22.217 L 227.441 28.711 L 218.945 6.397 L 212.842 5.273 L 212.842 1.123 L 235.693 1.123 L 235.742 5.273 L 228.613 6.397 L 247.607 62.695 A 296.301 296.301 0 0 0 252.441 48.682 L 261.23 20.361 Q 263.477 13.33 266.064 6.397 L 259.033 5.273 L 259.033 1.123 L 277.783 1.123 L 277.783 5.273 L 272.363 6.201 L 248.73 74.756 L 243.457 74.756 L 228.027 30.42 L 230.42 30.957 L 216.504 74.756 L 211.23 74.756 L 184.326 6.397 L 178.76 5.273 L 178.76 1.123 L 200.146 1.123 L 200.488 5.273 L 193.994 6.397 Z M 45.166 5.371 L 43.457 18.408 L 39.355 18.408 Q 39.355 14.052 37.825 11.237 A 8.906 8.906 0 0 0 35.693 8.618 A 11.883 11.883 0 0 0 31.703 6.479 Q 28.889 5.566 25.098 5.566 A 22.687 22.687 0 0 0 20.317 6.034 Q 17.531 6.635 15.496 8.011 A 11.07 11.07 0 0 0 12.012 11.816 A 9.222 9.222 0 0 0 10.907 15.76 A 11.075 11.075 0 0 0 10.889 16.406 A 15.151 15.151 0 0 0 11.083 18.888 A 11.804 11.804 0 0 0 11.621 20.972 A 8.293 8.293 0 0 0 12.608 22.855 Q 13.155 23.649 13.92 24.431 A 15.633 15.633 0 0 0 14.453 24.951 A 21.826 21.826 0 0 0 17.284 27.205 Q 21.696 30.22 29.883 33.643 A 62.151 62.151 0 0 1 36.969 37.164 Q 46.362 42.676 48.34 49.561 A 22.762 22.762 0 0 1 49.094 54.484 A 26.167 26.167 0 0 1 49.121 55.689 Q 49.121 58.936 48.022 61.841 A 17.756 17.756 0 0 1 45.02 67.017 A 20.403 20.403 0 0 1 40.601 70.947 A 27.151 27.151 0 0 1 35.254 73.682 A 32.532 32.532 0 0 1 23.363 75.942 Q 18.512 75.942 13.489 74.505 A 44.223 44.223 0 0 1 8.887 72.9 A 40.208 40.208 0 0 1 2.79 69.745 A 34.469 34.469 0 0 1 0 67.773 L 2.051 53.76 L 6.201 53.76 A 24.154 24.154 0 0 0 6.688 58.793 Q 7.314 61.724 8.742 63.884 A 11.813 11.813 0 0 0 12.402 67.432 Q 15.94 69.627 21.306 69.995 A 32.664 32.664 0 0 0 23.535 70.068 Q 27.148 70.068 30.103 69.36 A 16.407 16.407 0 0 0 33.014 68.381 A 13.173 13.173 0 0 0 35.205 67.139 Q 39.795 63.965 39.795 57.861 A 12.99 12.99 0 0 0 39.162 53.722 A 10.894 10.894 0 0 0 36.426 49.365 Q 32.861 45.947 24.878 42.456 A 150.158 150.158 0 0 1 21.124 40.756 Q 17.087 38.857 14.305 37.199 A 40.402 40.402 0 0 1 12.72 36.206 Q 9.242 33.908 7.001 31.559 A 21.025 21.025 0 0 1 6.152 30.615 A 17.532 17.532 0 0 1 1.824 19.432 A 22.449 22.449 0 0 1 1.807 18.555 A 15.859 15.859 0 0 1 7.215 6.416 A 22.065 22.065 0 0 1 8.887 5.029 A 24.403 24.403 0 0 1 20.885 0.241 A 31.855 31.855 0 0 1 24.854 0 A 42.55 42.55 0 0 1 38.678 2.36 A 48.278 48.278 0 0 1 39.6 2.686 A 43.613 43.613 0 0 1 43.131 4.264 A 35.566 35.566 0 0 1 45.166 5.371 Z M 367.92 60.498 L 370.459 60.498 A 11.763 11.763 0 0 0 371.237 64.955 Q 373.578 70.703 382.959 70.703 A 17.346 17.346 0 0 0 386.054 70.444 Q 387.784 70.13 389.17 69.435 A 9.171 9.171 0 0 0 390.527 68.604 A 7.073 7.073 0 0 0 392.053 67.109 A 5.413 5.413 0 0 0 393.115 63.818 Q 393.115 60.791 391.602 59.131 Q 388.623 55.859 382.983 53.906 A 75.331 75.331 0 0 1 379.884 52.762 Q 376.51 51.424 374.536 50.171 A 23.773 23.773 0 0 1 372.452 48.695 Q 371.419 47.87 370.622 47.012 A 13.15 13.15 0 0 1 370.117 46.436 A 12.593 12.593 0 0 1 368.19 43.377 A 10.16 10.16 0 0 1 367.334 39.282 A 16.73 16.73 0 0 1 367.528 36.655 Q 367.753 35.243 368.238 34.082 A 8.755 8.755 0 0 1 368.774 33.008 A 13.73 13.73 0 0 1 372.559 28.857 A 19.118 19.118 0 0 1 383.27 25.307 A 23.499 23.499 0 0 1 384.082 25.293 A 30.116 30.116 0 0 1 391.228 26.106 A 23.977 23.977 0 0 1 397.803 28.76 L 396.68 38.184 L 394.043 38.184 A 8.063 8.063 0 0 0 393.323 34.652 Q 391.685 31.25 386.322 30.648 A 22.287 22.287 0 0 0 383.838 30.518 Q 381.054 30.518 379.114 31.198 A 7.349 7.349 0 0 0 377.1 32.251 A 6.406 6.406 0 0 0 375.747 33.607 A 4.946 4.946 0 0 0 374.805 36.572 A 5.978 5.978 0 0 0 376.362 40.436 Q 379.138 43.76 386.857 46.668 A 66.135 66.135 0 0 0 387.549 46.924 A 41.051 41.051 0 0 1 392.562 49.131 Q 398.134 52.085 400.11 55.967 A 9.903 9.903 0 0 1 400.977 58.398 Q 401.304 60.075 401.357 62.282 A 36.422 36.422 0 0 1 401.367 63.159 Q 401.367 65.918 399.585 68.506 A 14.297 14.297 0 0 1 395.117 72.705 A 21.865 21.865 0 0 1 385.97 75.727 A 27.354 27.354 0 0 1 383.057 75.879 A 30.372 30.372 0 0 1 370.557 73.291 A 23.614 23.614 0 0 1 367.931 71.961 A 18.541 18.541 0 0 1 366.064 70.703 L 367.92 60.498 Z M 135.596 67.627 L 136.475 72.217 Q 129.533 75.783 126.342 75.876 A 5.778 5.778 0 0 1 126.172 75.879 A 12.236 12.236 0 0 1 123.504 75.615 Q 119.739 74.77 119.152 71.227 A 8.578 8.578 0 0 1 119.043 69.824 L 119.043 68.311 Q 118.446 69.207 116.04 70.811 A 46.395 46.395 0 0 1 115.308 71.289 A 82.565 82.565 0 0 1 113.866 72.192 Q 112.316 73.14 111.203 73.705 A 17.595 17.595 0 0 1 110.547 74.023 A 36.388 36.388 0 0 1 108.643 74.835 Q 106.764 75.569 105.428 75.787 A 6.46 6.46 0 0 1 104.395 75.879 A 42.83 42.83 0 0 1 103.038 75.859 Q 102.431 75.839 101.904 75.802 A 18.569 18.569 0 0 1 100.928 75.708 A 13.984 13.984 0 0 1 99.002 75.323 A 16.654 16.654 0 0 1 98.096 75.049 A 13.392 13.392 0 0 1 95.659 73.947 A 15.183 15.183 0 0 1 95.215 73.682 A 9.715 9.715 0 0 1 93.034 71.816 A 11.253 11.253 0 0 1 92.676 71.387 Q 90.251 68.344 90.187 63.495 A 20.017 20.017 0 0 1 90.186 63.232 A 15.125 15.125 0 0 1 90.598 59.575 A 9.06 9.06 0 0 1 95.117 53.565 Q 98.242 51.758 101.733 51.318 Q 105.225 50.879 108.105 50.635 A 153.833 153.833 0 0 1 119.043 50.049 L 119.043 39.795 Q 119.043 35.565 117.978 34.143 A 2.482 2.482 0 0 0 117.969 34.131 Q 116.162 31.641 112.354 31.641 A 27.599 27.599 0 0 0 100.551 34.368 A 36.518 36.518 0 0 0 95.654 37.158 L 92.822 32.91 A 60.727 60.727 0 0 1 99.73 28.893 Q 107.071 25.293 113.281 25.293 A 22.262 22.262 0 0 1 117.327 25.634 Q 122.059 26.511 124.414 29.639 A 11.299 11.299 0 0 1 126.149 33.127 Q 126.953 35.719 126.953 39.209 L 126.953 64.893 A 14.831 14.831 0 0 0 127.001 66.138 Q 127.18 68.247 128.022 68.839 A 1.244 1.244 0 0 0 128.32 68.994 A 2.972 2.972 0 0 0 128.709 69.081 Q 129.089 69.141 129.59 69.141 A 7.592 7.592 0 0 0 130.776 69.034 Q 132.029 68.833 133.805 68.255 A 44.335 44.335 0 0 0 135.596 67.627 Z M 319.287 67.627 L 320.166 72.217 Q 313.225 75.783 310.033 75.876 A 5.778 5.778 0 0 1 309.863 75.879 A 12.236 12.236 0 0 1 307.195 75.615 Q 303.431 74.77 302.843 71.227 A 8.578 8.578 0 0 1 302.734 69.824 L 302.734 68.311 Q 302.137 69.207 299.731 70.811 A 46.395 46.395 0 0 1 298.999 71.289 A 82.565 82.565 0 0 1 297.557 72.192 Q 296.007 73.14 294.895 73.705 A 17.595 17.595 0 0 1 294.238 74.023 A 36.388 36.388 0 0 1 292.334 74.835 Q 290.456 75.569 289.12 75.787 A 6.46 6.46 0 0 1 288.086 75.879 A 42.83 42.83 0 0 1 286.729 75.859 Q 286.123 75.839 285.595 75.802 A 18.569 18.569 0 0 1 284.619 75.708 A 13.984 13.984 0 0 1 282.693 75.323 A 16.654 16.654 0 0 1 281.787 75.049 A 13.392 13.392 0 0 1 279.35 73.947 A 15.183 15.183 0 0 1 278.906 73.682 A 9.715 9.715 0 0 1 276.725 71.816 A 11.253 11.253 0 0 1 276.367 71.387 Q 273.942 68.344 273.879 63.495 A 20.017 20.017 0 0 1 273.877 63.232 A 15.125 15.125 0 0 1 274.289 59.575 A 9.06 9.06 0 0 1 278.809 53.565 Q 281.934 51.758 285.425 51.318 Q 288.916 50.879 291.797 50.635 A 153.833 153.833 0 0 1 302.734 50.049 L 302.734 39.795 Q 302.734 35.565 301.67 34.143 A 2.482 2.482 0 0 0 301.66 34.131 Q 299.854 31.641 296.045 31.641 A 27.599 27.599 0 0 0 284.242 34.368 A 36.518 36.518 0 0 0 279.346 37.158 L 276.514 32.91 A 60.727 60.727 0 0 1 283.421 28.893 Q 290.762 25.293 296.973 25.293 A 22.262 22.262 0 0 1 301.019 25.634 Q 305.751 26.511 308.105 29.639 A 11.299 11.299 0 0 1 309.84 33.127 Q 310.645 35.719 310.645 39.209 L 310.645 64.893 A 14.831 14.831 0 0 0 310.693 66.138 Q 310.871 68.247 311.713 68.839 A 1.244 1.244 0 0 0 312.012 68.994 A 2.972 2.972 0 0 0 312.401 69.081 Q 312.781 69.141 313.281 69.141 A 7.592 7.592 0 0 0 314.467 69.034 Q 315.72 68.833 317.497 68.255 A 44.335 44.335 0 0 0 319.287 67.627 Z M 145.068 69.58 L 145.068 34.033 L 138.818 32.91 L 138.818 28.857 L 152.979 25.293 L 152.979 37.744 A 104.544 104.544 0 0 1 157.311 33.2 Q 164.061 26.569 168.324 25.499 A 6.373 6.373 0 0 1 169.873 25.293 A 11.445 11.445 0 0 1 176.483 27.424 A 15.955 15.955 0 0 1 178.418 29.004 L 175.879 36.914 L 173.584 36.914 A 2.875 2.875 0 0 0 172.504 34.676 Q 172.022 34.256 171.323 33.908 A 9.948 9.948 0 0 0 169.922 33.35 A 7.434 7.434 0 0 0 167.871 33.057 Q 163.063 33.057 154.335 42.033 A 98.78 98.78 0 0 0 152.979 43.457 L 152.979 69.58 L 162.646 70.703 L 162.646 74.756 L 138.818 74.756 L 138.818 70.703 L 145.068 69.58 Z M 328.76 69.58 L 328.76 34.033 L 322.51 32.91 L 322.51 28.857 L 336.67 25.293 L 336.67 37.744 A 104.544 104.544 0 0 1 341.003 33.2 Q 347.752 26.569 352.016 25.499 A 6.373 6.373 0 0 1 353.564 25.293 A 11.445 11.445 0 0 1 360.174 27.424 A 15.955 15.955 0 0 1 362.109 29.004 L 359.57 36.914 L 357.275 36.914 A 2.875 2.875 0 0 0 356.196 34.676 Q 355.713 34.256 355.014 33.908 A 9.948 9.948 0 0 0 353.613 33.35 A 7.434 7.434 0 0 0 351.563 33.057 Q 346.754 33.057 338.027 42.033 A 98.78 98.78 0 0 0 336.67 43.457 L 336.67 69.58 L 346.338 70.703 L 346.338 74.756 L 322.51 74.756 L 322.51 70.703 L 328.76 69.58 Z M 69.678 32.178 L 69.678 59.815 Q 69.678 68.619 76.107 69.485 A 11.088 11.088 0 0 0 77.588 69.58 A 10.67 10.67 0 0 0 82.618 68.278 Q 84.149 67.471 85.645 66.162 L 88.281 69.385 A 46.101 46.101 0 0 1 85.258 71.684 Q 83.729 72.744 82.298 73.517 A 22.683 22.683 0 0 1 80.615 74.341 A 22.493 22.493 0 0 1 78.196 75.248 Q 76.972 75.623 75.868 75.775 A 10.645 10.645 0 0 1 74.414 75.879 Q 71.729 75.879 69.214 74.707 A 10.949 10.949 0 0 1 65.039 71.338 Q 61.768 67.09 61.768 59.277 L 61.768 32.178 L 55.566 32.178 L 55.566 27.93 L 61.768 26.465 L 61.768 19.922 L 67.529 14.16 L 69.678 14.16 L 69.678 26.465 L 85.791 26.465 L 85.791 32.178 L 69.678 32.178 Z M 119.043 63.818 L 119.043 54.15 A 144.085 144.085 0 0 0 113.453 54.467 Q 105.571 55.082 102.218 56.473 A 8.262 8.262 0 0 0 101.27 56.934 A 5.605 5.605 0 0 0 98.419 60.964 A 8.267 8.267 0 0 0 98.291 62.451 A 10.821 10.821 0 0 0 98.548 64.91 Q 98.899 66.411 99.729 67.434 A 5.555 5.555 0 0 0 102.539 69.238 Q 103.499 69.518 104.804 69.569 A 15.28 15.28 0 0 0 105.396 69.58 A 10.197 10.197 0 0 0 106.857 69.467 Q 107.993 69.302 109.326 68.897 Q 111.572 68.213 113.477 67.236 A 42.059 42.059 0 0 0 115.573 66.147 Q 116.636 65.554 117.504 64.971 A 17.041 17.041 0 0 0 119.043 63.818 Z M 302.734 63.818 L 302.734 54.15 A 144.085 144.085 0 0 0 297.144 54.467 Q 289.262 55.082 285.91 56.473 A 8.262 8.262 0 0 0 284.961 56.934 A 5.605 5.605 0 0 0 282.11 60.964 A 8.267 8.267 0 0 0 281.982 62.451 A 10.821 10.821 0 0 0 282.24 64.91 Q 282.591 66.411 283.42 67.434 A 5.555 5.555 0 0 0 286.23 69.238 Q 287.191 69.518 288.495 69.569 A 15.28 15.28 0 0 0 289.087 69.58 A 10.197 10.197 0 0 0 290.548 69.467 Q 291.684 69.302 293.018 68.897 Q 295.264 68.213 297.168 67.236 A 42.059 42.059 0 0 0 299.264 66.147 Q 300.328 65.554 301.195 64.971 A 17.041 17.041 0 0 0 302.734 63.818 Z" vector-effect="non-scaling-stroke"/></g></svg>